HIERARCHY
ROOT Hips
{
	OFFSET 0.000000 0.000000 0.000000
	CHANNELS 6 Xposition Yposition Zposition Zrotation Yrotation Xrotation 
	JOINT LHipJoint
	{
		OFFSET 0.000000 0.000000 0.000000
		CHANNELS 3 Zrotation Yrotation Xrotation
		JOINT LeftUpLeg
		{
			OFFSET 1.363060 -1.794630 0.839290
			CHANNELS 3 Zrotation Yrotation Xrotation
			JOINT LeftLeg
			{
				OFFSET 2.448110 -6.726130 0.000000
				CHANNELS 3 Zrotation Yrotation Xrotation
				JOINT LeftFoot
				{
					OFFSET 2.562200 -7.039590 0.000000
					CHANNELS 3 Zrotation Yrotation Xrotation
					JOINT LeftToeBase
					{
						OFFSET 0.157640 -0.433110 2.322550
						CHANNELS 3 Zrotation Yrotation Xrotation
						End Site
						{
							OFFSET 0.000000 0.000000 0.000000
						}
					}
				}
			}
		}
	}
	JOINT RHipJoint
	{
		OFFSET 0.000000 0.000000 0.000000
		CHANNELS 3 Zrotation Yrotation Xrotation
		JOINT RightUpLeg
		{
			OFFSET -1.305520 -1.794630 0.839290
			CHANNELS 3 Zrotation Yrotation Xrotation
			JOINT RightLeg
			{
				OFFSET -2.542530 -6.985550 0.000000
				CHANNELS 3 Zrotation Yrotation Xrotation
				JOINT RightFoot
				{
					OFFSET -2.568260 -7.056230 0.000000
					CHANNELS 3 Zrotation Yrotation Xrotation
					JOINT RightToeBase
					{
						OFFSET -0.164730 -0.452590 2.363150
						CHANNELS 3 Zrotation Yrotation Xrotation
						End Site
						{
							OFFSET 0.000000 0.000000 0.000000
						}
					}
				}
			}
		}
	}
	JOINT LowerBack
	{
		OFFSET 0.000000 0.000000 0.000000
		CHANNELS 3 Zrotation Yrotation Xrotation
		JOINT Spine
		{
			OFFSET 0.028270 2.035590 -0.193380
			CHANNELS 3 Zrotation Yrotation Xrotation
			JOINT Spine1
			{
				OFFSET 0.056720 2.048850 -0.042750
				CHANNELS 3 Zrotation Yrotation Xrotation
				JOINT Neck
				{
					OFFSET 0.000000 0.000000 0.000000
					CHANNELS 3 Zrotation Yrotation Xrotation
					JOINT Neck1
					{
						OFFSET -0.054170 1.746240 0.172020
						CHANNELS 3 Zrotation Yrotation Xrotation
						JOINT Head
						{
							OFFSET 0.104070 1.761360 -0.123970
							CHANNELS 3 Zrotation Yrotation Xrotation
							End Site
							{
								OFFSET 0.000000 0.000000 0.000000
							}
						}
					}
				}
				JOINT LeftShoulder
				{
					OFFSET 0.000000 0.000000 0.000000
					CHANNELS 3 Zrotation Yrotation Xrotation
					JOINT LeftArm
					{
						OFFSET 3.362410 1.200890 -0.311210
						CHANNELS 3 Zrotation Yrotation Xrotation
						JOINT LeftForeArm
						{
							OFFSET 4.983000 -0.000000 -0.000000
							CHANNELS 3 Zrotation Yrotation Xrotation
							JOINT LeftHand
							{
								OFFSET 3.483560 -0.000000 -0.000000
								CHANNELS 3 Zrotation Yrotation Xrotation
								JOINT LeftFingerBase
								{
									OFFSET 0.000000 0.000000 0.000000
									CHANNELS 3 Zrotation Yrotation Xrotation
									JOINT LeftHandIndex1
									{
										OFFSET 0.715260 -0.000000 -0.000000
										CHANNELS 3 Zrotation Yrotation Xrotation
										End Site
										{
											OFFSET 0.000000 0.000000 0.000000
										}
									}
								}
								JOINT LThumb
								{
									OFFSET 0.000000 0.000000 0.000000
									CHANNELS 3 Zrotation Yrotation Xrotation
									End Site
									{
										OFFSET 0.000000 0.000000 0.000000
									}
								}
							}
						}
					}
				}
				JOINT RightShoulder
				{
					OFFSET 0.000000 0.000000 0.000000
					CHANNELS 3 Zrotation Yrotation Xrotation
					JOINT RightArm
					{
						OFFSET -3.136600 1.374050 -0.404650
						CHANNELS 3 Zrotation Yrotation Xrotation
						JOINT RightForeArm
						{
							OFFSET -5.241900 -0.000000 -0.000000
							CHANNELS 3 Zrotation Yrotation Xrotation
							JOINT RightHand
							{
								OFFSET -3.444170 -0.000000 -0.000000
								CHANNELS 3 Zrotation Yrotation Xrotation
								JOINT RightFingerBase
								{
									OFFSET 0.000000 0.000000 0.000000
									CHANNELS 3 Zrotation Yrotation Xrotation
									JOINT RightHandIndex1
									{
										OFFSET -0.622530 -0.000000 -0.000000
										CHANNELS 3 Zrotation Yrotation Xrotation
										End Site
										{
											OFFSET 0.000000 0.000000 0.000000
										}
									}
								}
								JOINT RThumb
								{
									OFFSET 0.000000 0.000000 0.000000
									CHANNELS 3 Zrotation Yrotation Xrotation
									End Site
									{
										OFFSET 0.000000 0.000000 0.000000
									}
								}
							}
						}
					}
				}
			}
		}
	}
}
MOTION
Frames: 12
Frame Time: 0.008333
0.256263 17.451822 -1.738540 -4.752823 2.215503 18.477886 0.073900 0.449216 -0.216804 -5.129057 -14.301224 -38.932668 3.942402 14.298373 41.372462 1.505482 -1.980940 -0.939731 1.005600 -6.381000 -17.893800 -0.944219 -1.337171 1.029810 17.151428 15.554712 -37.673705 -3.692958 -12.994264 39.868706 -0.049668 -2.627964 -7.112873 -1.139700 6.779500 -19.063800 -0.828678 0.799651 20.096171 -1.500745 0.818716 5.383881 1.243859 0.473094 -4.717716 -16.868641 -12.984129 -10.212865 21.928791 -12.720414 -15.253404 12.894600 -5.354900 0.300000 -7.015336 -10.966240 4.117130 -59.221082 -49.004901 26.857665 99.471510 -51.507117 -71.281511 1.051157 1.246529 11.364588 -23.377585 35.476467 -13.987400 -7.125000 0.000000 0.000000 -58.260000 54.371500 -17.955700 5.654896 12.075004 4.581550 51.875227 48.876733 22.539564 -104.012485 49.861113 -72.389099 1.559733 -0.297166 24.208811 35.540131 9.367461 6.079800 7.125000 0.000000 0.000000 38.405200 -17.670000 33.725100 
0.273848 17.377031 -1.780279 -4.502565 2.316648 18.291368 0.188511 0.455136 -0.216571 -5.534216 -14.352507 -39.512574 4.238342 14.588405 42.425767 1.666011 -2.594871 -1.348365 0.959800 -6.238100 -17.476900 -1.075716 -1.332657 1.028554 16.892579 15.423853 -38.394062 -4.046468 -13.412613 41.233065 -0.137492 -2.470681 -7.895047 -1.181800 6.899500 -19.417800 -0.849482 0.818834 20.433075 -1.255688 0.857170 5.508180 1.542054 0.491713 -4.922945 -16.851112 -12.871543 -9.915191 21.845049 -12.603592 -15.137814 12.877600 -5.310400 0.241800 -6.937778 -11.090233 3.937639 -57.646040 -49.922382 25.493777 100.131850 -51.250757 -71.965739 1.069111 1.265598 11.418799 -23.680559 35.657283 -14.237300 -7.125000 0.000000 0.000000 -58.660000 54.398200 -18.203800 5.628714 12.218527 4.515795 51.162387 49.579964 21.649960 -104.641036 49.680437 -73.105719 1.517339 -0.324170 24.382029 35.019578 9.033978 5.776700 7.125000 0.000000 0.000000 38.305000 -18.092600 33.038200 
0.289951 17.307959 -1.819900 -4.148816 2.330799 18.200484 0.291566 0.458857 -0.216465 -6.058633 -14.337240 -40.118205 4.487685 14.831070 43.319395 1.790844 -3.092294 -1.728907 0.982300 -6.308800 -17.682900 -1.205424 -1.321851 1.022617 16.471449 15.378207 -39.163414 -4.397530 -13.819038 42.556426 -0.184426 -2.459103 -8.637233 -1.284700 7.182300 -20.256700 -0.937375 0.782377 20.558417 -1.123093 0.810828 5.709965 1.801198 0.463553 -4.997108 -16.811775 -12.731651 -9.702279 21.856695 -12.429489 -15.095876 12.900600 -5.228100 0.165500 -6.853011 -11.246151 3.610651 -55.659845 -50.564591 23.693665 100.755071 -51.037696 -72.604405 1.073245 1.286997 11.345812 -24.042253 35.880463 -14.536000 -7.125000 0.000000 0.000000 -59.147000 54.443600 -18.531200 5.604718 12.389500 4.508555 50.574613 50.517719 20.924908 -105.227792 49.447854 -73.809639 1.460173 -0.350936 24.729060 34.330035 8.656460 5.421200 7.125000 0.000000 0.000000 38.153900 -18.593500 32.181400 
0.305206 17.240689 -1.857296 -3.579107 2.306121 18.270689 0.388164 0.456801 -0.215851 -6.773864 -14.399342 -40.834464 4.716508 15.052233 44.152008 1.886585 -3.517346 -2.079459 0.997600 -6.356200 -17.821600 -1.339739 -1.299186 1.006080 15.756251 15.337792 -40.070266 -4.731608 -14.208863 43.782642 -0.245418 -2.386148 -9.266076 -1.294800 7.209500 -20.337700 -1.181605 0.771068 20.532797 -1.076439 0.767859 5.880684 2.049659 0.436208 -5.048878 -16.709654 -12.638315 -9.445738 21.844578 -12.325412 -15.144553 12.887900 -5.184500 0.054200 -6.766259 -11.407205 3.247437 -53.818339 -51.185242 22.021416 101.531110 -50.851768 -73.387452 1.069389 1.326315 11.232654 -24.665260 36.286897 -15.058300 -7.125000 0.000000 0.000000 -60.004800 54.536300 -19.140600 5.584885 12.563957 4.527478 50.123023 51.494127 20.178791 -105.774480 49.208325 -74.475560 1.408676 -0.370210 25.222288 33.657194 8.461406 5.186400 7.125000 0.000000 0.000000 37.953400 -18.924700 31.470500 
0.322050 17.185284 -1.889713 -3.033767 2.299502 18.348750 0.463774 0.456294 -0.211699 -7.441839 -14.517360 -41.429552 4.902553 15.223065 44.825424 1.968940 -3.911487 -2.276992 0.954100 -6.220000 -17.424200 -1.458369 -1.280804 0.990970 15.070368 15.233586 -40.891360 -5.032500 -14.548670 44.858596 -0.330322 -2.194325 -9.724946 -1.247700 7.082200 -19.959100 -1.560783 0.881768 20.510894 -0.863618 0.865648 6.029498 2.501479 0.487727 -5.132119 -16.809228 -12.615386 -9.054421 21.842514 -12.315868 -15.311272 12.914600 -5.186000 -0.089000 -6.684401 -11.556796 2.981049 -52.580909 -52.001226 20.764660 102.438389 -50.645042 -74.293021 1.080010 1.374732 11.293700 -25.406148 36.853864 -15.722700 -7.125000 0.000000 0.000000 -61.113300 54.682400 -19.995800 5.566644 12.732964 4.486910 49.588342 52.171028 19.227677 -106.454956 49.016588 -75.255649 1.370265 -0.378586 25.637467 33.008025 8.441005 5.059700 7.125000 0.000000 0.000000 37.705900 -19.095000 30.898200 
0.338258 17.142591 -1.919057 -2.579608 2.216394 18.308721 0.507826 0.462941 -0.198546 -8.058948 -14.480824 -41.776536 5.041153 15.337296 45.324046 2.061542 -4.316501 -2.416853 0.879700 -5.979200 -16.724000 -1.547960 -1.273517 0.981522 14.470620 15.189952 -41.451826 -5.290822 -14.819236 45.752891 -0.438899 -1.891491 -10.069208 -1.131800 6.757000 -18.997400 -2.110875 1.077623 20.649048 -0.442756 1.047317 6.184961 3.238898 0.595212 -5.290414 -17.223096 -12.600084 -8.638255 21.844457 -12.305730 -15.563251 13.004600 -5.172500 -0.243200 -6.607137 -11.695176 2.778756 -51.728063 -52.716636 19.637780 102.985350 -50.479921 -74.846879 1.078029 1.402999 11.253786 -26.025467 37.170476 -16.231000 -7.125000 0.000000 0.000000 -61.884100 54.717800 -20.492700 5.548993 12.894371 4.384475 48.914973 52.602691 18.360555 -107.133900 48.867261 -76.018750 1.340709 -0.382690 25.842836 32.449401 8.388898 4.930600 7.125000 0.000000 0.000000 37.496700 -19.267800 30.389000 
0.353196 17.112611 -1.946601 -2.146667 2.203930 18.118087 0.517019 0.478055 -0.175513 -8.656574 -14.438423 -41.884404 5.137092 15.396392 45.661937 2.189726 -4.829679 -2.539472 0.836500 -5.834300 -16.304400 -1.596116 -1.271409 0.973184 13.937431 15.070576 -41.702406 -5.478753 -15.005020 46.387886 -0.519353 -1.679056 -10.361163 -1.014800 6.409300 -17.976600 -2.523773 1.169487 20.957894 -0.104608 1.112425 6.372404 3.860814 0.639873 -5.444626 -17.596842 -12.557043 -8.432203 21.876888 -12.259114 -15.670748 13.097700 -5.134100 -0.313700 -6.537020 -11.821717 2.461942 -50.684267 -53.028877 18.506656 103.130814 -50.427354 -75.008428 1.050351 1.410272 10.838052 -26.343252 37.223052 -16.452400 -7.125000 0.000000 0.000000 -62.173600 54.687900 -20.607100 5.542380 13.009047 4.441718 48.752621 53.222692 17.907523 -107.775489 48.662160 -76.767604 1.321573 -0.405141 25.887439 32.232266 8.248151 4.825100 7.125000 0.000000 0.000000 37.440000 -19.419400 30.127600 
0.363789 17.094389 -1.970967 -1.878853 2.183472 17.921931 0.520157 0.492128 -0.158415 -9.067916 -14.312794 -41.916977 5.181696 15.417789 45.822530 2.287054 -5.226247 -2.536351 0.810300 -5.744700 -16.045300 -1.616514 -1.269923 0.968995 13.595706 15.071589 -41.776685 -5.591447 -15.110417 46.767741 -0.516485 -1.730717 -10.530524 -1.028000 6.449500 -18.094300 -2.705093 1.232248 21.311902 0.116755 1.173881 6.510494 4.237201 0.669550 -5.590989 -17.715869 -12.495894 -8.267050 21.939484 -12.185611 -15.747855 13.158200 -5.098400 -0.396300 -6.482428 -11.892260 2.092400 -49.665545 -53.080255 17.618369 103.173168 -50.454495 -75.056055 1.018854 1.415689 10.581573 -26.635554 37.210985 -16.628800 -7.125000 0.000000 0.000000 -62.369200 54.628700 -20.616900 5.551706 13.042782 4.704733 49.264530 53.980436 17.818161 -108.453711 48.410764 -77.570275 1.293601 -0.443797 25.954398 32.130198 7.967287 4.671800 7.125000 0.000000 0.000000 37.466700 -19.651300 29.888100 
0.376608 17.091317 -1.986857 -1.791648 2.068067 17.835556 0.523622 0.495983 -0.152819 -9.312419 -14.047198 -41.955631 5.171798 15.410124 45.820060 2.277685 -5.244040 -2.322954 0.755300 -5.550600 -15.486000 -1.621226 -1.269993 0.968443 13.403678 15.223010 -41.769278 -5.626297 -15.139754 46.879380 -0.488094 -1.827485 -10.529534 -1.058600 6.541900 -18.365000 -2.681487 1.360879 21.760315 0.320990 1.348297 6.459821 4.440031 0.754751 -5.862440 -17.738718 -12.480730 -8.091547 21.945257 -12.176153 -15.835139 13.172500 -5.106200 -0.484300 -6.457428 -11.882752 1.878237 -49.218666 -53.091873 17.361397 103.161503 -50.472513 -75.058584 0.988631 1.421670 10.776828 -27.149889 36.939309 -16.842100 -7.125000 0.000000 0.000000 -62.422900 54.366800 -20.187800 5.573919 12.977232 5.033615 50.157933 54.504662 17.900097 -109.112188 48.221918 -78.319227 1.265432 -0.463136 26.110817 31.840394 7.861738 4.576400 7.125000 0.000000 0.000000 37.372700 -19.786600 29.596000 
0.394299 17.101381 -1.994273 -1.712053 2.009444 17.916736 0.518238 0.485394 -0.156291 -9.520657 -13.847588 -42.037180 5.122178 15.373538 45.682746 2.270902 -5.251561 -2.128617 0.721900 -5.429100 -15.136600 -1.618799 -1.265478 0.962765 13.184953 15.328186 -41.776096 -5.589644 -15.112519 46.742579 -0.460646 -1.893870 -10.403507 -1.056100 6.534400 -18.343200 -2.590215 1.458675 22.074976 0.576549 1.499446 6.334686 4.656891 0.830358 -6.051082 -17.796852 -12.473160 -8.061762 21.813846 -12.179597 -15.865802 13.123400 -5.113700 -0.533600 -6.451478 -11.832229 1.788702 -49.160803 -53.055065 17.639427 103.063346 -50.479127 -74.967946 0.977803 1.428510 10.650363 -27.229905 37.023053 -16.922200 -7.125000 0.000000 0.000000 -62.567100 54.400100 -20.329100 5.600388 12.847977 5.370736 51.222602 54.892595 18.203873 -109.691248 48.081837 -78.968062 1.234051 -0.468681 26.330925 31.406351 7.815550 4.483400 7.125000 0.000000 0.000000 37.205600 -19.911400 29.219400 
0.414004 17.121403 -1.997027 -1.770853 1.953442 18.110227 0.515036 0.464139 -0.172214 -9.559468 -13.638298 -42.154848 5.032515 15.312945 45.399603 2.273965 -5.248601 -1.992516 0.787700 -5.665700 -15.817300 -1.606538 -1.254366 0.955842 13.093994 15.459558 -41.792078 -5.489495 -15.030322 46.391901 -0.424223 -1.977529 -10.212931 -1.067900 6.569600 -18.446300 -2.224720 1.501236 21.888312 0.742013 1.638425 6.458850 4.647643 0.873300 -5.743793 -17.680191 -12.479930 -8.268118 21.734569 -12.171621 -16.006099 13.053000 -5.105600 -0.596900 -6.439602 -11.786205 1.623590 -48.905013 -52.982856 17.993368 102.838736 -50.495541 -74.760536 0.986248 1.416225 10.549838 -26.894343 37.032462 -16.716200 -7.125000 0.000000 0.000000 -62.354200 54.482600 -20.352300 5.622065 12.708558 5.794410 52.487814 55.486240 18.580626 -110.297441 47.914671 -79.658356 1.183275 -0.481819 26.415224 30.964671 7.446073 4.220100 7.125000 0.000000 0.000000 37.127300 -20.308600 28.645700 
0.432966 17.147146 -1.998405 -1.922842 1.886375 18.339390 0.504556 0.439400 -0.193840 -9.467912 -13.428832 -42.224938 4.890613 15.210262 44.940092 2.254954 -5.168915 -1.692937 0.798100 -5.702200 -15.922800 -1.578262 -1.240296 0.950069 13.106929 15.627275 -41.753838 -5.338622 -14.899438 45.870119 -0.340470 -2.208876 -9.941967 -1.104800 6.678600 -18.766500 -1.539703 1.489942 21.363147 0.731479 1.758860 6.799118 4.298635 0.884680 -5.073257 -17.405468 -12.538625 -8.455503 21.850491 -12.203968 -16.346795 13.043300 -5.125100 -0.728800 -6.408860 -11.708388 1.377315 -48.536430 -52.984452 18.392117 102.064449 -50.511726 -74.055341 0.960034 1.377511 11.192510 -27.153488 36.142555 -16.531200 -7.125000 0.000000 0.000000 -61.592700 53.932100 -18.959300 5.633934 12.530990 6.341511 54.104165 56.341370 19.030939 -110.802095 47.765558 -80.242858 1.131372 -0.488730 26.510223 30.555406 7.066264 3.960100 7.125000 0.000000 0.000000 37.067900 -20.709300 28.095900 
